<svg width="360" height="640" viewBox="0 0 360 640" fill="none" xmlns="http://www.w3.org/2000/svg">
<rect width="360" height="640" fill="white"/>
<rect width="360" height="175" transform="matrix(1 0 0 -1 0 175)" fill="#2B3467"/>
<ellipse cx="180" cy="175" rx="180" ry="35" fill="#2B3467"/>
<path d="M38.8906 84L34.4531 68H36.9922L40.1094 80.3906H40.2578L43.5 68H46.0156L49.2578 80.3984H49.4063L52.5156 68H55.0625L50.6172 84H48.1875L44.8203 72.0156H44.6953L41.3281 84H38.8906ZM61.0664 84.2422C59.8841 84.2422 58.8659 83.9896 58.0117 83.4844C57.1628 82.974 56.5065 82.2578 56.043 81.3359C55.5846 80.4089 55.3555 79.3229 55.3555 78.0781C55.3555 76.849 55.5846 75.7656 56.043 74.8281C56.5065 73.8906 57.1523 73.1589 57.9805 72.6328C58.8138 72.1068 59.7878 71.8438 60.9023 71.8438C61.5794 71.8438 62.2357 71.9557 62.8711 72.1797C63.5065 72.4036 64.0768 72.7552 64.582 73.2344C65.0872 73.7135 65.4857 74.3359 65.7773 75.1016C66.069 75.862 66.2148 76.7865 66.2148 77.875V78.7031H56.6758V76.9531H63.9258C63.9258 76.3385 63.8008 75.7943 63.5508 75.3203C63.3008 74.8411 62.9492 74.4635 62.4961 74.1875C62.0482 73.9115 61.5221 73.7734 60.918 73.7734C60.2617 73.7734 59.6888 73.9349 59.1992 74.2578C58.7148 74.5755 58.3398 74.9922 58.0742 75.5078C57.8138 76.0182 57.6836 76.5729 57.6836 77.1719V78.5391C57.6836 79.3411 57.8242 80.0234 58.1055 80.5859C58.3919 81.1484 58.7904 81.5781 59.3008 81.875C59.8112 82.1667 60.4076 82.3125 61.0898 82.3125C61.5326 82.3125 61.9362 82.25 62.3008 82.125C62.6654 81.9948 62.9805 81.8021 63.2461 81.5469C63.5117 81.2917 63.7148 80.9766 63.8555 80.6016L66.0664 81C65.8893 81.651 65.5716 82.2214 65.1133 82.7109C64.6602 83.1953 64.0898 83.5729 63.4023 83.8437C62.7201 84.1094 61.9414 84.2422 61.0664 84.2422ZM71.1426 68V84H68.8066V68H71.1426ZM79.3398 84.2422C78.1784 84.2422 77.1784 83.9792 76.3398 83.4531C75.5065 82.9219 74.8659 82.1901 74.418 81.2578C73.9701 80.3255 73.7461 79.2578 73.7461 78.0547C73.7461 76.8359 73.9753 75.7604 74.4336 74.8281C74.8919 73.8906 75.5378 73.1589 76.3711 72.6328C77.2044 72.1068 78.1862 71.8438 79.3164 71.8438C80.2279 71.8438 81.0404 72.013 81.7539 72.3516C82.4674 72.6849 83.043 73.1536 83.4805 73.7578C83.9232 74.362 84.1862 75.0677 84.2695 75.875H81.9961C81.8711 75.3125 81.5846 74.8281 81.1367 74.4219C80.694 74.0156 80.1003 73.8125 79.3555 73.8125C78.7044 73.8125 78.1341 73.9844 77.6445 74.3281C77.1602 74.6667 76.7826 75.151 76.5117 75.7812C76.2409 76.4062 76.1055 77.1458 76.1055 78C76.1055 78.875 76.2383 79.6302 76.5039 80.2656C76.7695 80.901 77.1445 81.3932 77.6289 81.7422C78.1185 82.0911 78.694 82.2656 79.3555 82.2656C79.7982 82.2656 80.1992 82.1849 80.5586 82.0234C80.9232 81.8568 81.2279 81.6198 81.4727 81.3125C81.7227 81.0052 81.8971 80.6354 81.9961 80.2031H84.2695C84.1862 80.9792 83.9336 81.6719 83.5117 82.2812C83.0898 82.8906 82.5247 83.3698 81.8164 83.7187C81.1133 84.0677 80.2878 84.2422 79.3398 84.2422ZM91.8223 84.2422C90.6973 84.2422 89.7155 83.9844 88.877 83.4687C88.0384 82.9531 87.3874 82.2318 86.9238 81.3047C86.4603 80.3776 86.2285 79.2943 86.2285 78.0547C86.2285 76.8099 86.4603 75.7214 86.9238 74.7891C87.3874 73.8568 88.0384 73.1328 88.877 72.6172C89.7155 72.1016 90.6973 71.8438 91.8223 71.8438C92.9473 71.8438 93.929 72.1016 94.7676 72.6172C95.6061 73.1328 96.2572 73.8568 96.7207 74.7891C97.1842 75.7214 97.416 76.8099 97.416 78.0547C97.416 79.2943 97.1842 80.3776 96.7207 81.3047C96.2572 82.2318 95.6061 82.9531 94.7676 83.4687C93.929 83.9844 92.9473 84.2422 91.8223 84.2422ZM91.8301 82.2812C92.5592 82.2812 93.1634 82.0885 93.6426 81.7031C94.1217 81.3177 94.4759 80.8047 94.7051 80.1641C94.9395 79.5234 95.0566 78.8177 95.0566 78.0469C95.0566 77.2812 94.9395 76.5781 94.7051 75.9375C94.4759 75.2917 94.1217 74.7734 93.6426 74.3828C93.1634 73.9922 92.5592 73.7969 91.8301 73.7969C91.0957 73.7969 90.4863 73.9922 90.002 74.3828C89.5228 74.7734 89.166 75.2917 88.9316 75.9375C88.7025 76.5781 88.5879 77.2812 88.5879 78.0469C88.5879 78.8177 88.7025 79.5234 88.9316 80.1641C89.166 80.8047 89.5228 81.3177 90.002 81.7031C90.4863 82.0885 91.0957 82.2812 91.8301 82.2812ZM100.023 84V72H102.266V73.9531H102.414C102.664 73.2917 103.073 72.776 103.641 72.4063C104.208 72.0313 104.888 71.8438 105.68 71.8438C106.482 71.8438 107.154 72.0313 107.695 72.4063C108.242 72.7812 108.646 73.2969 108.906 73.9531H109.031C109.318 73.3125 109.773 72.8021 110.398 72.4219C111.023 72.0365 111.768 71.8438 112.633 71.8438C113.721 71.8438 114.609 72.1849 115.297 72.8672C115.99 73.5495 116.336 74.5781 116.336 75.9531V84H114V76.1719C114 75.3594 113.779 74.7708 113.336 74.4062C112.893 74.0417 112.365 73.8594 111.75 73.8594C110.99 73.8594 110.398 74.0937 109.977 74.5625C109.555 75.026 109.344 75.6224 109.344 76.3516V84H107.016V76.0234C107.016 75.3724 106.813 74.849 106.406 74.4531C106 74.0573 105.471 73.8594 104.82 73.8594C104.378 73.8594 103.969 73.9766 103.594 74.2109C103.224 74.4401 102.924 74.7604 102.695 75.1719C102.471 75.5833 102.359 76.0599 102.359 76.6016V84H100.023ZM124.639 84.2422C123.456 84.2422 122.438 83.9896 121.584 83.4844C120.735 82.974 120.079 82.2578 119.615 81.3359C119.157 80.4089 118.928 79.3229 118.928 78.0781C118.928 76.849 119.157 75.7656 119.615 74.8281C120.079 73.8906 120.725 73.1589 121.553 72.6328C122.386 72.1068 123.36 71.8438 124.475 71.8438C125.152 71.8438 125.808 71.9557 126.443 72.1797C127.079 72.4036 127.649 72.7552 128.154 73.2344C128.66 73.7135 129.058 74.3359 129.35 75.1016C129.641 75.862 129.787 76.7865 129.787 77.875V78.7031H120.248V76.9531H127.498C127.498 76.3385 127.373 75.7943 127.123 75.3203C126.873 74.8411 126.521 74.4635 126.068 74.1875C125.62 73.9115 125.094 73.7734 124.49 73.7734C123.834 73.7734 123.261 73.9349 122.771 74.2578C122.287 74.5755 121.912 74.9922 121.646 75.5078C121.386 76.0182 121.256 76.5729 121.256 77.1719V78.5391C121.256 79.3411 121.396 80.0234 121.678 80.5859C121.964 81.1484 122.363 81.5781 122.873 81.875C123.383 82.1667 123.98 82.3125 124.662 82.3125C125.105 82.3125 125.508 82.25 125.873 82.125C126.238 81.9948 126.553 81.8021 126.818 81.5469C127.084 81.2917 127.287 80.9766 127.428 80.6016L129.639 81C129.462 81.651 129.144 82.2214 128.686 82.7109C128.232 83.1953 127.662 83.5729 126.975 83.8437C126.292 84.1094 125.514 84.2422 124.639 84.2422Z" fill="white"/>
<path d="M44.0824 101.342L42.0614 101.7C41.9769 101.441 41.8427 101.195 41.6587 100.962C41.4798 100.728 41.2362 100.537 40.9279 100.387C40.6197 100.238 40.2344 100.164 39.772 100.164C39.1406 100.164 38.6136 100.305 38.1911 100.589C37.7685 100.867 37.5572 101.228 37.5572 101.67C37.5572 102.053 37.6989 102.361 37.9822 102.595C38.2656 102.828 38.723 103.02 39.3544 103.169L41.174 103.587C42.228 103.83 43.0135 104.206 43.5305 104.713C44.0476 105.22 44.3061 105.879 44.3061 106.689C44.3061 107.375 44.1072 107.987 43.7095 108.523C43.3168 109.055 42.7674 109.473 42.0614 109.776C41.3604 110.08 40.5476 110.231 39.6229 110.231C38.3402 110.231 37.2937 109.958 36.4833 109.411C35.6729 108.859 35.1758 108.076 34.9918 107.062L37.147 106.734C37.2813 107.295 37.5572 107.721 37.9748 108.009C38.3924 108.292 38.9368 108.434 39.608 108.434C40.3388 108.434 40.9229 108.282 41.3604 107.979C41.7979 107.671 42.0167 107.295 42.0167 106.853C42.0167 106.495 41.8825 106.194 41.614 105.951C41.3505 105.707 40.9453 105.523 40.3984 105.399L38.4595 104.974C37.3906 104.73 36.6001 104.342 36.0881 103.81C35.581 103.278 35.3274 102.605 35.3274 101.789C35.3274 101.113 35.5163 100.522 35.8942 100.015C36.272 99.5075 36.794 99.1122 37.4602 98.8288C38.1264 98.5405 38.8896 98.3963 39.7496 98.3963C40.9876 98.3963 41.962 98.6648 42.6729 99.2017C43.3839 99.7337 43.8537 100.447 44.0824 101.342ZM46.7577 110V98.5455H48.9875V110H46.7577ZM47.8838 96.7781C47.496 96.7781 47.1629 96.6488 46.8845 96.3903C46.6111 96.1268 46.4743 95.8136 46.4743 95.4506C46.4743 95.0827 46.6111 94.7695 46.8845 94.511C47.1629 94.2475 47.496 94.1158 47.8838 94.1158C48.2716 94.1158 48.6022 94.2475 48.8756 94.511C49.154 94.7695 49.2932 95.0827 49.2932 95.4506C49.2932 95.8136 49.154 96.1268 48.8756 96.3903C48.6022 96.6488 48.2716 96.7781 47.8838 96.7781ZM56.7898 114.534C55.88 114.534 55.0969 114.415 54.4407 114.176C53.7894 113.938 53.2575 113.622 52.8448 113.229C52.4322 112.836 52.1239 112.406 51.9201 111.939L53.8366 111.148C53.9709 111.367 54.1499 111.598 54.3736 111.842C54.6023 112.091 54.9105 112.302 55.2983 112.476C55.6911 112.65 56.1957 112.737 56.8121 112.737C57.6573 112.737 58.3558 112.531 58.9077 112.118C59.4595 111.71 59.7354 111.059 59.7354 110.164V107.912H59.5938C59.4595 108.156 59.2656 108.426 59.0121 108.725C58.7635 109.023 58.4205 109.282 57.983 109.5C57.5455 109.719 56.9762 109.828 56.2752 109.828C55.3704 109.828 54.555 109.617 53.8292 109.195C53.1083 108.767 52.5366 108.138 52.114 107.308C51.6964 106.473 51.4876 105.446 51.4876 104.228C51.4876 103.01 51.6939 101.966 52.1065 101.096C52.5241 100.226 53.0959 99.5597 53.8217 99.0973C54.5476 98.63 55.3704 98.3963 56.2901 98.3963C57.0011 98.3963 57.5753 98.5156 58.0128 98.7543C58.4503 98.9879 58.7908 99.2614 59.0344 99.5746C59.283 99.8878 59.4744 100.164 59.6087 100.402H59.7727V98.5455H61.9577V110.254C61.9577 111.238 61.729 112.046 61.2717 112.677C60.8143 113.309 60.1953 113.776 59.4148 114.079C58.6392 114.382 57.7642 114.534 56.7898 114.534ZM56.7674 107.979C57.4087 107.979 57.9506 107.83 58.3931 107.532C58.8406 107.228 59.1786 106.796 59.4073 106.234C59.641 105.667 59.7578 104.989 59.7578 104.198C59.7578 103.428 59.6435 102.749 59.4148 102.162C59.1861 101.576 58.8505 101.118 58.408 100.79C57.9656 100.457 57.4187 100.29 56.7674 100.29C56.0962 100.29 55.5369 100.464 55.0895 100.812C54.642 101.156 54.304 101.623 54.0753 102.214C53.8516 102.806 53.7397 103.467 53.7397 104.198C53.7397 104.949 53.854 105.608 54.0827 106.174C54.3114 106.741 54.6495 107.184 55.0969 107.502C55.5494 107.82 56.1062 107.979 56.7674 107.979ZM67.1779 103.199V110H64.9482V98.5455H67.0884V100.41H67.2301C67.4936 99.8033 67.9063 99.3161 68.468 98.9482C69.0348 98.5803 69.7482 98.3963 70.6083 98.3963C71.3888 98.3963 72.0724 98.5604 72.6591 98.8885C73.2457 99.2116 73.7006 99.6939 74.0238 100.335C74.3469 100.977 74.5085 101.77 74.5085 102.714V110H72.2788V102.983C72.2788 102.152 72.0625 101.504 71.63 101.036C71.1974 100.564 70.6033 100.328 69.8477 100.328C69.3306 100.328 68.8707 100.44 68.468 100.663C68.0703 100.887 67.7546 101.215 67.521 101.648C67.2923 102.075 67.1779 102.592 67.1779 103.199ZM85.5399 94.7273V110H83.2355V94.7273H85.5399ZM90.9465 103.199V110H88.7167V98.5455H90.857V100.41H90.9987C91.2622 99.8033 91.6748 99.3161 92.2366 98.9482C92.8034 98.5803 93.5168 98.3963 94.3769 98.3963C95.1574 98.3963 95.841 98.5604 96.4276 98.8885C97.0143 99.2116 97.4692 99.6939 97.7923 100.335C98.1155 100.977 98.2771 101.77 98.2771 102.714V110H96.0473V102.983C96.0473 102.152 95.8311 101.504 95.3985 101.036C94.966 100.564 94.3719 100.328 93.6162 100.328C93.0992 100.328 92.6393 100.44 92.2366 100.663C91.8389 100.887 91.5232 101.215 91.2895 101.648C91.0608 102.075 90.9465 102.592 90.9465 103.199ZM112.172 98.5455V100.335H105.915V98.5455H112.172ZM107.593 95.8011H109.823V106.637C109.823 107.069 109.888 107.395 110.017 107.614C110.146 107.827 110.313 107.974 110.517 108.054C110.725 108.128 110.952 108.165 111.195 108.165C111.374 108.165 111.531 108.153 111.665 108.128C111.799 108.103 111.904 108.083 111.978 108.069L112.381 109.911C112.252 109.96 112.068 110.01 111.829 110.06C111.59 110.114 111.292 110.144 110.934 110.149C110.347 110.159 109.801 110.055 109.294 109.836C108.786 109.617 108.376 109.279 108.063 108.822C107.75 108.364 107.593 107.79 107.593 107.099V95.8011ZM119.34 110.231C118.267 110.231 117.329 109.985 116.529 109.493C115.729 109.001 115.107 108.312 114.665 107.427C114.222 106.542 114.001 105.508 114.001 104.325C114.001 103.137 114.222 102.098 114.665 101.208C115.107 100.318 115.729 99.6268 116.529 99.1346C117.329 98.6424 118.267 98.3963 119.34 98.3963C120.414 98.3963 121.351 98.6424 122.152 99.1346C122.952 99.6268 123.574 100.318 124.016 101.208C124.459 102.098 124.68 103.137 124.68 104.325C124.68 105.508 124.459 106.542 124.016 107.427C123.574 108.312 122.952 109.001 122.152 109.493C121.351 109.985 120.414 110.231 119.34 110.231ZM119.348 108.359C120.044 108.359 120.621 108.175 121.078 107.808C121.535 107.44 121.873 106.95 122.092 106.338C122.316 105.727 122.428 105.053 122.428 104.317C122.428 103.587 122.316 102.915 122.092 102.304C121.873 101.687 121.535 101.193 121.078 100.82C120.621 100.447 120.044 100.261 119.348 100.261C118.647 100.261 118.065 100.447 117.603 100.82C117.146 101.193 116.805 101.687 116.581 102.304C116.362 102.915 116.253 103.587 116.253 104.317C116.253 105.053 116.362 105.727 116.581 106.338C116.805 106.95 117.146 107.44 117.603 107.808C118.065 108.175 118.647 108.359 119.348 108.359ZM137.551 110.231C136.443 110.231 135.488 109.98 134.688 109.478C133.892 108.971 133.281 108.272 132.853 107.382C132.426 106.493 132.212 105.473 132.212 104.325C132.212 103.162 132.431 102.135 132.868 101.245C133.306 100.35 133.922 99.6516 134.718 99.1495C135.513 98.6474 136.45 98.3963 137.529 98.3963C138.399 98.3963 139.175 98.5579 139.856 98.881C140.537 99.1992 141.086 99.6467 141.504 100.223C141.926 100.8 142.177 101.474 142.257 102.244H140.087C139.968 101.707 139.694 101.245 139.267 100.857C138.844 100.469 138.277 100.276 137.566 100.276C136.945 100.276 136.4 100.44 135.933 100.768C135.471 101.091 135.11 101.553 134.852 102.155C134.593 102.751 134.464 103.457 134.464 104.273C134.464 105.108 134.591 105.829 134.844 106.435C135.098 107.042 135.456 107.512 135.918 107.845C136.386 108.178 136.935 108.344 137.566 108.344C137.989 108.344 138.372 108.267 138.715 108.113C139.063 107.954 139.354 107.728 139.587 107.435C139.826 107.141 139.992 106.788 140.087 106.376H142.257C142.177 107.116 141.936 107.778 141.534 108.359C141.131 108.941 140.592 109.398 139.915 109.732C139.244 110.065 138.456 110.231 137.551 110.231ZM149.466 110.231C148.393 110.231 147.455 109.985 146.655 109.493C145.855 109.001 145.233 108.312 144.791 107.427C144.348 106.542 144.127 105.508 144.127 104.325C144.127 103.137 144.348 102.098 144.791 101.208C145.233 100.318 145.855 99.6268 146.655 99.1346C147.455 98.6424 148.393 98.3963 149.466 98.3963C150.54 98.3963 151.477 98.6424 152.278 99.1346C153.078 99.6268 153.7 100.318 154.142 101.208C154.585 102.098 154.806 103.137 154.806 104.325C154.806 105.508 154.585 106.542 154.142 107.427C153.7 108.312 153.078 109.001 152.278 109.493C151.477 109.985 150.54 110.231 149.466 110.231ZM149.474 108.359C150.17 108.359 150.747 108.175 151.204 107.808C151.661 107.44 151.999 106.95 152.218 106.338C152.442 105.727 152.554 105.053 152.554 104.317C152.554 103.587 152.442 102.915 152.218 102.304C151.999 101.687 151.661 101.193 151.204 100.82C150.747 100.447 150.17 100.261 149.474 100.261C148.773 100.261 148.191 100.447 147.729 100.82C147.271 101.193 146.931 101.687 146.707 102.304C146.488 102.915 146.379 103.587 146.379 104.317C146.379 105.053 146.488 105.727 146.707 106.338C146.931 106.95 147.271 107.44 147.729 107.808C148.191 108.175 148.773 108.359 149.474 108.359ZM159.525 103.199V110H157.295V98.5455H159.435V100.41H159.577C159.84 99.8033 160.253 99.3161 160.815 98.9482C161.381 98.5803 162.095 98.3963 162.955 98.3963C163.736 98.3963 164.419 98.5604 165.006 98.8885C165.592 99.2116 166.047 99.6939 166.37 100.335C166.694 100.977 166.855 101.77 166.855 102.714V110H164.625V102.983C164.625 102.152 164.409 101.504 163.977 101.036C163.544 100.564 162.95 100.328 162.194 100.328C161.677 100.328 161.217 100.44 160.815 100.663C160.417 100.887 160.101 101.215 159.868 101.648C159.639 102.075 159.525 102.592 159.525 103.199ZM175.193 98.5455V100.335H168.936V98.5455H175.193ZM170.614 95.8011H172.843V106.637C172.843 107.069 172.908 107.395 173.037 107.614C173.167 107.827 173.333 107.974 173.537 108.054C173.746 108.128 173.972 108.165 174.216 108.165C174.395 108.165 174.551 108.153 174.685 108.128C174.82 108.103 174.924 108.083 174.999 108.069L175.401 109.911C175.272 109.96 175.088 110.01 174.85 110.06C174.611 110.114 174.313 110.144 173.955 110.149C173.368 110.159 172.821 110.055 172.314 109.836C171.807 109.617 171.397 109.279 171.084 108.822C170.77 108.364 170.614 107.79 170.614 107.099V95.8011ZM177.659 110V98.5455H179.889V110H177.659ZM178.785 96.7781C178.397 96.7781 178.064 96.6488 177.786 96.3903C177.512 96.1268 177.376 95.8136 177.376 95.4506C177.376 95.0827 177.512 94.7695 177.786 94.511C178.064 94.2475 178.397 94.1158 178.785 94.1158C179.173 94.1158 179.504 94.2475 179.777 94.511C180.055 94.7695 180.195 95.0827 180.195 95.4506C180.195 95.8136 180.055 96.1268 179.777 96.3903C179.504 96.6488 179.173 96.7781 178.785 96.7781ZM185.118 103.199V110H182.889V98.5455H185.029V100.41H185.171C185.434 99.8033 185.847 99.3161 186.408 98.9482C186.975 98.5803 187.689 98.3963 188.549 98.3963C189.329 98.3963 190.013 98.5604 190.6 98.8885C191.186 99.2116 191.641 99.6939 191.964 100.335C192.287 100.977 192.449 101.77 192.449 102.714V110H190.219V102.983C190.219 102.152 190.003 101.504 189.57 101.036C189.138 100.564 188.544 100.328 187.788 100.328C187.271 100.328 186.811 100.44 186.408 100.663C186.011 100.887 185.695 101.215 185.461 101.648C185.233 102.075 185.118 102.592 185.118 103.199ZM202.695 105.25V98.5455H204.933V110H202.74V108.016H202.621C202.357 108.628 201.935 109.137 201.353 109.545C200.776 109.948 200.058 110.149 199.198 110.149C198.462 110.149 197.811 109.988 197.244 109.664C196.682 109.336 196.24 108.852 195.917 108.21C195.598 107.569 195.439 106.776 195.439 105.831V98.5455H197.669V105.563C197.669 106.343 197.885 106.965 198.318 107.427C198.75 107.89 199.312 108.121 200.003 108.121C200.421 108.121 200.836 108.016 201.249 107.808C201.666 107.599 202.012 107.283 202.285 106.86C202.564 106.438 202.7 105.901 202.695 105.25ZM212.865 110.231C211.737 110.231 210.765 109.99 209.95 109.508C209.139 109.021 208.513 108.337 208.07 107.457C207.633 106.572 207.414 105.536 207.414 104.347C207.414 103.174 207.633 102.14 208.07 101.245C208.513 100.35 209.129 99.6516 209.92 99.1495C210.715 98.6474 211.645 98.3963 212.709 98.3963C213.355 98.3963 213.982 98.5032 214.588 98.717C215.195 98.9308 215.739 99.2663 216.221 99.7237C216.703 100.181 217.084 100.775 217.362 101.506C217.641 102.232 217.78 103.114 217.78 104.153V104.944H208.674V103.273H215.595C215.595 102.687 215.475 102.167 215.237 101.715C214.998 101.257 214.663 100.897 214.23 100.634C213.803 100.37 213.3 100.238 212.724 100.238C212.097 100.238 211.55 100.392 211.083 100.701C210.621 101.004 210.263 101.402 210.009 101.894C209.761 102.381 209.636 102.911 209.636 103.482V104.787C209.636 105.553 209.771 106.204 210.039 106.741C210.312 107.278 210.693 107.688 211.18 107.972C211.667 108.25 212.237 108.389 212.888 108.389C213.31 108.389 213.696 108.33 214.044 108.21C214.392 108.086 214.692 107.902 214.946 107.658C215.2 107.415 215.393 107.114 215.528 106.756L217.638 107.136C217.469 107.758 217.166 108.302 216.728 108.77C216.296 109.232 215.751 109.592 215.095 109.851C214.444 110.104 213.701 110.231 212.865 110.231Z" fill="white"/>
</svg>
